<svg width="17" height="16" viewBox="0 0 17 16" fill="none" xmlns="http://www.w3.org/2000/svg">
<g clip-path="url(#clip0_1_1571)">
<path d="M14.5758 3.6664H12.2626V3.42876C12.2626 2.36705 11.4009 1.50537 10.3392 1.50537H6.66039C5.59825 1.50537 4.737 2.36705 4.737 3.42876V3.6664H2.42339C1.36125 3.6664 0.5 4.52765 0.5 5.58979V12.5712C0.5 13.633 1.36125 14.4946 2.42339 14.4946H14.5766C15.6388 14.4946 16.5 13.633 16.5 12.5712V5.58979C16.4991 4.52722 15.6379 3.6664 14.5758 3.6664ZM8.49915 12.4994C6.49541 12.4994 4.86608 10.8701 4.86608 8.86638C4.86608 6.86307 6.49541 5.23332 8.49915 5.23332C10.5029 5.23332 12.1322 6.86264 12.1322 8.86638C12.1322 10.8701 10.5025 12.4994 8.49915 12.4994ZM10.4225 8.86638C10.4225 9.92595 9.55914 10.7898 8.49915 10.7898C7.43915 10.7898 6.57576 9.92595 6.57576 8.86638C6.57576 7.80638 7.43915 6.943 8.49915 6.943C9.55914 6.943 10.4225 7.80638 10.4225 8.86638Z" fill="#6A6A6A"/>
</g>
<defs>
<clipPath id="clip0_1_1571">
<rect width="16" height="16" fill="white" transform="translate(0.5)"/>
</clipPath>
</defs>
</svg>
