<svg width="16" height="16" viewBox="0 0 16 16" fill="none" xmlns="http://www.w3.org/2000/svg" class="fill"><path d="M6.16661 5.33336H1.16662C0.523314 5.33336 0 4.81005 0 4.16662V1.16662C0 0.523314 0.523314 0 1.16662 0H6.16661C6.81004 0 7.33336 0.523314 7.33336 1.16662V4.16662C7.33336 4.81005 6.81004 5.33336 6.16661 5.33336ZM1.16662 0.999997C1.0747 0.999997 0.999997 1.0747 0.999997 1.16662V4.16662C0.999997 4.25866 1.0747 4.33336 1.16662 4.33336H6.16661C6.25865 4.33336 6.33336 4.25866 6.33336 4.16662V1.16662C6.33336 1.0747 6.25865 0.999997 6.16661 0.999997H1.16662Z" fill="#000"></path><path d="M6.16661 16H1.16662C0.523314 16 0 15.4767 0 14.8334V7.8334C0 7.18997 0.523314 6.66666 1.16662 6.66666H6.16661C6.81004 6.66666 7.33336 7.18997 7.33336 7.8334V14.8334C7.33336 15.4767 6.81004 16 6.16661 16ZM1.16662 7.66665C1.0747 7.66665 0.999997 7.74136 0.999997 7.8334V14.8334C0.999997 14.9253 1.0747 15 1.16662 15H6.16661C6.25865 15 6.33336 14.9253 6.33336 14.8334V7.8334C6.33336 7.74136 6.25865 7.66665 6.16661 7.66665H1.16662Z" fill="#000"></path><path d="M14.8327 16H9.83276C9.18933 16 8.66602 15.4767 8.66602 14.8334V11.8334C8.66602 11.1899 9.18933 10.6666 9.83276 10.6666H14.8327C15.4761 10.6666 15.9994 11.1899 15.9994 11.8334V14.8334C15.9994 15.4767 15.4761 16 14.8327 16ZM9.83276 11.6666C9.74072 11.6666 9.66601 11.7413 9.66601 11.8334V14.8334C9.66601 14.9253 9.74072 15 9.83276 15H14.8327C14.9247 15 14.9994 14.9253 14.9994 14.8334V11.8334C14.9994 11.7413 14.9247 11.6666 14.8327 11.6666H9.83276Z" fill="#000"></path><path d="M14.8327 9.33335H9.83276C9.18933 9.33335 8.66602 8.81004 8.66602 8.16661V1.16662C8.66602 0.523314 9.18933 0 9.83276 0H14.8327C15.4761 0 15.9994 0.523314 15.9994 1.16662V8.16661C15.9994 8.81004 15.4761 9.33335 14.8327 9.33335ZM9.83276 0.999997C9.74072 0.999997 9.66601 1.0747 9.66601 1.16662V8.16661C9.66601 8.25865 9.74072 8.33335 9.83276 8.33335H14.8327C14.9247 8.33335 14.9994 8.25865 14.9994 8.16661V1.16662C14.9994 1.0747 14.9247 0.999997 14.8327 0.999997H9.83276Z" fill="#000"></path></svg>