<svg width="20" height="20" viewBox="0 0 20 20" fill="none" xmlns="http://www.w3.org/2000/svg">
<path d="M8.82907 3.16294C8.1547 2.81838 7.42609 2.64365 6.66435 2.64365C4.03721 2.64365 1.9 4.78086 1.9 7.40803C1.9 9.26581 2.88079 11.2241 4.78703 13.2275C6.37911 14.9008 8.32616 16.2937 9.67716 17.1667L9.94572 17.3403L10 17.3753L9.73143 17.0827C8.38331 16.2116 6.44371 14.8236 4.85948 13.1586C2.96208 11.1644 2 9.22969 2 7.40803C2 4.83609 4.09244 2.74365 6.66435 2.74365C7.41038 2.74365 8.12338 2.91467 8.78357 3.25199C9.20338 3.46645 9.59125 3.74676 9.92929 4.07776C9.95261 4.05395 9.97618 4.03037 9.99999 4.00704M8.82907 3.16294L8.78362 3.2519L8.82906 3.16294C8.82907 3.16294 8.82907 3.16294 8.82907 3.16294ZM8.82907 3.16294C9.25831 3.38223 9.65467 3.66876 9.99999 4.00704M9.99999 4.00704C10.0238 4.03037 10.0474 4.05395 10.0707 4.07776L11.1709 3.16294C10.7417 3.38222 10.3453 3.66875 9.99999 4.00704ZM5.64893 12.4074L5.57648 12.4764L5.64892 12.4074C3.94003 10.6115 3.08969 8.9299 3.08969 7.40803C3.08969 5.43703 4.69338 3.83334 6.66438 3.83334C7.79942 3.83334 8.84143 4.35435 9.5244 5.26352L9.92005 5.7902L10 5.89664L10.08 5.7902L10.4756 5.26352C11.1586 4.35435 12.2006 3.83334 13.3356 3.83334C15.3066 3.83334 16.9103 5.43703 16.9103 7.40803C16.9103 8.9299 16.0599 10.6115 14.3511 12.4074C12.9628 13.8665 11.2741 15.1118 10 15.9562C8.72593 15.1118 7.03719 13.8665 5.64893 12.4074Z" fill="#1E1E1E" stroke="#1E1E1E" stroke-width="0.2"/>
</svg>
