<svg width="16" height="16" viewBox="0 0 16 16" fill="none" xmlns="http://www.w3.org/2000/svg" class="fill"><path d="M15.4994 7.50003H9.16602C8.89001 7.50003 8.66602 7.27603 8.66602 7.00003C8.66602 6.72403 8.89001 6.50003 9.16602 6.50003H15.4994C15.7754 6.50003 15.9994 6.72403 15.9994 7.00003C15.9994 7.27603 15.7754 7.50003 15.4994 7.50003Z" fill="#5E5E5E"></path><path d="M12.9999 10C12.8718 10 12.7439 9.95129 12.6465 9.85339C12.4512 9.65796 12.4512 9.34131 12.6465 9.146L14.7932 6.99939L12.6465 4.85266C12.4512 4.65735 12.4512 4.3407 12.6465 4.14539C12.8419 3.94995 13.1586 3.94995 13.3539 4.14539L15.8539 6.64539C16.0492 6.8407 16.0492 7.15735 15.8539 7.35266L13.3539 9.85266C13.2559 9.95129 13.1279 10 12.9999 10Z" fill="#5E5E5E"></path><path d="M5.33337 16C5.19067 16 5.0553 15.98 4.92004 15.938L0.907959 14.6013C0.362061 14.4106 0 13.902 0 13.3334V1.33337C0 0.598022 0.598022 0 1.33337 0C1.47595 0 1.61133 0.0200195 1.7467 0.0620117L5.75867 1.39868C6.30469 1.58936 6.66663 2.09802 6.66663 2.66663V14.6666C6.66663 15.402 6.06873 16 5.33337 16ZM1.33337 1C1.15002 1 1 1.15002 1 1.33337V13.3334C1 13.4753 1.09534 13.6073 1.23132 13.6547L5.22461 14.9854C5.2533 14.9946 5.29065 15 5.33337 15C5.51672 15 5.66663 14.85 5.66663 14.6666V2.66663C5.66663 2.52466 5.57129 2.3927 5.4353 2.34534L1.44202 1.01465C1.41333 1.00537 1.37598 1 1.33337 1Z" fill="#5E5E5E"></path><path d="M10.1672 5.33337C9.89124 5.33337 9.66724 5.10938 9.66724 4.83337V1.83337C9.66724 1.37402 9.29333 1 8.83398 1H1.33398C1.05798 1 0.833984 0.776001 0.833984 0.5C0.833984 0.223999 1.05798 0 1.33398 0H8.83398C9.84534 0 10.6672 0.822021 10.6672 1.83337V4.83337C10.6672 5.10938 10.4432 5.33337 10.1672 5.33337Z" fill="#5E5E5E"></path><path d="M8.83276 14H6.16602C5.89001 14 5.66602 13.776 5.66602 13.5C5.66602 13.224 5.89001 13 6.16602 13H8.83276C9.29211 13 9.66602 12.626 9.66602 12.1666V9.16663C9.66602 8.89062 9.89001 8.66663 10.166 8.66663C10.442 8.66663 10.666 8.89062 10.666 9.16663V12.1666C10.666 13.178 9.84412 14 8.83276 14Z" fill="#5E5E5E"></path></svg>