<svg width="24" height="24" viewBox="0 0 24 24" fill="none" xmlns="http://www.w3.org/2000/svg"><g clip-path="url(#clip0_294_29962)"><path d="M2.25 19C2.25 19.5523 2.69772 20 3.25 20H20.75C21.3023 20 21.75 19.5523 21.75 19C21.75 18.4477 21.3023 18 20.75 18H3.25C2.69772 18 2.25 18.4477 2.25 19ZM2.25 12C2.25 12.5523 2.69772 13 3.25 13H20.75C21.3023 13 21.75 12.5523 21.75 12C21.75 11.4477 21.3023 11 20.75 11H3.25C2.69772 11 2.25 11.4477 2.25 12ZM3.25 4C2.69772 4 2.25 4.44772 2.25 5C2.25 5.55228 2.69772 6 3.25 6H20.75C21.3023 6 21.75 5.55228 21.75 5C21.75 4.44772 21.3023 4 20.75 4H3.25Z" fill="#555555"></path></g><defs><clipPath id="clip0_294_29962"><rect width="24" height="24" fill="white"></rect></clipPath></defs></svg>