<svg width="16" height="16" viewBox="0 0 16 16" fill="none" xmlns="http://www.w3.org/2000/svg" class="stroke"><path d="M4.28571 5.14258L4.57142 6.28544" stroke="#333333" stroke-linecap="round" stroke-linejoin="round"></path><path d="M8.28571 5.14258L8 6.28544" stroke="#333333" stroke-linecap="round" stroke-linejoin="round"></path><path d="M2.07999 8.57171H11.4286L12.5714 2.85742H1.14285C1.05927 2.85773 0.976783 2.87636 0.901191 2.91202C0.8256 2.94767 0.758749 2.99947 0.705352 3.06376C0.651954 3.12805 0.613311 3.20328 0.592145 3.28413C0.570979 3.36498 0.567807 3.4495 0.582851 3.53171L1.51999 8.10314C1.54185 8.23531 1.61038 8.35527 1.71312 8.44124C1.81587 8.52722 1.94603 8.5735 2.07999 8.57171V8.57171Z" stroke="#333333" stroke-linecap="round" stroke-linejoin="round"></path><path d="M12.5714 2.857L13.0514 1.02843C13.0778 0.899362 13.1479 0.783358 13.2499 0.700054C13.352 0.61675 13.4797 0.571262 13.6114 0.571289H15.4286" stroke="#333333" stroke-linecap="round" stroke-linejoin="round"></path><path d="M11.4286 8.57129L10.9486 10.9713C10.9222 11.1004 10.8521 11.2164 10.75 11.2997C10.648 11.383 10.5203 11.4285 10.3886 11.4284H3.42856" stroke="#333333" stroke-linecap="round" stroke-linejoin="round"></path><path d="M3.99999 15.428C4.31558 15.428 4.57142 15.1722 4.57142 14.8566C4.57142 14.541 4.31558 14.2852 3.99999 14.2852C3.6844 14.2852 3.42856 14.541 3.42856 14.8566C3.42856 15.1722 3.6844 15.428 3.99999 15.428Z" stroke="#333333" stroke-linecap="round" stroke-linejoin="round"></path><path d="M9.71428 15.428C10.0299 15.428 10.2857 15.1722 10.2857 14.8566C10.2857 14.541 10.0299 14.2852 9.71428 14.2852C9.39869 14.2852 9.14285 14.541 9.14285 14.8566C9.14285 15.1722 9.39869 15.428 9.71428 15.428Z" stroke="#333333" stroke-linecap="round" stroke-linejoin="round"></path></svg>