<svg width="21" height="21" viewBox="0 0 21 21" fill="none" xmlns="http://www.w3.org/2000/svg">
<path d="M9.93945 0.931641C4.98074 0.931641 0.941406 4.97096 0.941406 9.9297C0.941406 14.8884 4.98074 18.9356 9.93945 18.9356C12.0575 18.9356 14.0054 18.1933 15.5449 16.961L19.293 20.707C19.4821 20.8883 19.7347 20.9884 19.9967 20.9857C20.2587 20.983 20.5093 20.8779 20.6947 20.6927C20.8801 20.5076 20.9856 20.2572 20.9886 19.9953C20.9917 19.7333 20.892 19.4805 20.7109 19.2911L16.9629 15.5431C18.1963 14.0012 18.9395 12.0502 18.9395 9.9297C18.9395 4.97096 14.8982 0.931641 9.93945 0.931641ZM9.93945 2.93167C13.8173 2.93167 16.9375 6.05187 16.9375 9.9297C16.9375 13.8075 13.8173 16.9356 9.93945 16.9356C6.06162 16.9356 2.94141 13.8075 2.94141 9.9297C2.94141 6.05187 6.06162 2.93167 9.93945 2.93167Z" fill="#555555"/>
</svg>
