<svg width="16" height="16" viewBox="0 0 16 16" fill="none" xmlns="http://www.w3.org/2000/svg" class="stroke"><path d="M5.97715 2.57129L6.46858 1.30272C6.55145 1.08793 6.69727 0.903187 6.88692 0.772675C7.07657 0.642162 7.30122 0.571969 7.53143 0.571289H8.46858C8.69879 0.571969 8.92344 0.642162 9.11309 0.772675C9.30274 0.903187 9.44856 1.08793 9.53143 1.30272L10.0229 2.57129L11.6914 3.53129L13.04 3.32557C13.2646 3.2951 13.4931 3.33206 13.6966 3.43177C13.9001 3.53149 14.0693 3.68944 14.1829 3.88558L14.64 4.68557C14.7571 4.88483 14.8111 5.11492 14.7948 5.34548C14.7785 5.57605 14.6926 5.79624 14.5486 5.977L13.7143 7.03986V8.95986L14.5714 10.0227C14.7155 10.2035 14.8013 10.4237 14.8177 10.6542C14.834 10.8848 14.78 11.1149 14.6629 11.3141L14.2057 12.1141C14.0922 12.3103 13.9229 12.4682 13.7195 12.5679C13.516 12.6677 13.2874 12.7046 13.0629 12.6741L11.7143 12.4684L10.0457 13.4284L9.55429 14.697C9.47141 14.9118 9.3256 15.0965 9.13595 15.227C8.9463 15.3576 8.72165 15.4278 8.49143 15.4284H7.53143C7.30122 15.4278 7.07657 15.3576 6.88692 15.227C6.69727 15.0965 6.55145 14.9118 6.46858 14.697L5.97715 13.4284L4.30858 12.4684L2.96 12.6741C2.73545 12.7046 2.50691 12.6677 2.30341 12.5679C2.09992 12.4682 1.93066 12.3103 1.81715 12.1141L1.36 11.3141C1.24286 11.1149 1.18889 10.8848 1.20522 10.6542C1.22154 10.4237 1.30739 10.2035 1.45143 10.0227L2.28572 8.95986V7.03986L1.42858 5.977C1.28453 5.79624 1.19868 5.57605 1.18236 5.34548C1.16604 5.11492 1.22001 4.88483 1.33715 4.68557L1.79429 3.88558C1.9078 3.68944 2.07706 3.53149 2.28056 3.43177C2.48405 3.33206 2.71259 3.2951 2.93715 3.32557L4.28572 3.53129L5.97715 2.57129ZM5.71429 7.99986C5.71429 8.45193 5.84835 8.89385 6.0995 9.26974C6.35066 9.64562 6.70764 9.93859 7.1253 10.1116C7.54296 10.2846 8.00254 10.3299 8.44593 10.2417C8.88931 10.1535 9.29659 9.93577 9.61625 9.6161C9.93591 9.29644 10.1536 8.88917 10.2418 8.44578C10.33 8.0024 10.2847 7.54282 10.1117 7.12516C9.93873 6.7075 9.64576 6.35052 9.26988 6.09936C8.894 5.8482 8.45208 5.71415 8 5.71415C7.3938 5.71415 6.81242 5.95496 6.38376 6.38362C5.95511 6.81227 5.71429 7.39365 5.71429 7.99986V7.99986Z" stroke="#333333" stroke-linecap="round" stroke-linejoin="round"></path></svg>